<?xml version="1.0" encoding="utf-8"?>
<!-- Generator: Adobe Illustrator 24.0.3, SVG Export Plug-In . SVG Version: 6.00 Build 0)  -->
<svg version="1.1" id="Layer_1" xmlns="http://www.w3.org/2000/svg" xmlns:xlink="http://www.w3.org/1999/xlink" x="0px" y="0px"
	 viewBox="0 0 360 55.08" style="enable-background:new 0 0 360 55.08;" xml:space="preserve">
<style type="text/css">
	.st0{fill-rule:evenodd;clip-rule:evenodd;fill:#313134;}
</style>
<path class="st0" d="M0.13,1.4h40.62v11.92H12.92v10.8h22.93v11.64H12.92v17.91H0.13V1.4z M47.38,53.68h40.97V41.76H60.18v-8.78
	h22.58V21.34H60.18v-8.02h28.17V1.4H47.38V53.68z M133.79,33.18L109.46,1.4H96.74v52.28h12.44V21.68l24.89,31.99h12.16V1.4h-12.44
	V33.18z M231.03,53.68h12.79V1.4h-12.79V53.68z M279.62,12.41c4.82,0,9.09,2.16,12.58,6.62l9.86-7.81
	c-4.9-6.62-12.8-10.94-22.44-10.94c-15.45,0-27.75,12.27-27.75,27.25c0,14.99,12.3,27.25,27.75,27.25c9.65,0,17.55-4.32,22.44-10.95
	l-9.86-7.8c-3.5,4.39-7.76,6.55-12.58,6.55c-8.46,0-14.82-6.83-14.82-15.05C264.8,19.32,271.16,12.41,279.62,12.41z M337.99,22.38
	L358.62,1.4h-15.45l-21.25,22.02V1.4h-12.79v52.28h12.79V38.69l7.34-7.46l15.24,22.44h15.38L337.99,22.38z M178.64,53.68l9.96-31.23
	l10.02,31.23h13.48L224.88,1.4h-12.72l-7.62,32.34L194.19,1.4h-10.9l-10.28,32.2l-7.62-32.2h-13l12.85,52.28H178.64z"/>
</svg>
